<svg width="60" height="60" viewBox="0 0 60 60" fill="none" xmlns="http://www.w3.org/2000/svg">
<path d="M12 20C13.4043 20 14.7838 19.6303 15.9999 18.9282C17.216 18.226 18.2259 17.2161 18.928 16H48C49.0609 16 50.0783 15.5786 50.8284 14.8284C51.5786 14.0783 52 13.0609 52 12C52 10.9391 51.5786 9.92173 50.8284 9.17159C50.0783 8.42144 49.0609 8.00001 48 8.00001H18.928C18.2258 6.78396 17.2159 5.77414 15.9998 5.07206C14.7837 4.36998 13.4042 4.00037 12 4.00037C10.5958 4.00037 9.21629 4.36998 8.00018 5.07206C6.78407 5.77414 5.77418 6.78396 5.07201 8.00001H12V16H5.07201C5.77414 17.2161 6.78401 18.226 8.00012 18.9282C9.21624 19.6303 10.5957 20 12 20ZM8.58401 37.416C8.21013 37.7908 8.00012 38.2986 8.00001 38.828V54C8.00001 54.5304 8.21072 55.0392 8.58579 55.4142C8.96087 55.7893 9.46957 56 10 56H16C16.5304 56 17.0391 55.7893 17.4142 55.4142C17.7893 55.0392 18 54.5304 18 54V52H42V54C42 54.5304 42.2107 55.0392 42.5858 55.4142C42.9609 55.7893 43.4696 56 44 56H50C50.5304 56 51.0391 55.7893 51.4142 55.4142C51.7893 55.0392 52 54.5304 52 54V38.828C51.9999 38.2986 51.7899 37.7908 51.416 37.416L48 34L42.584 24.972C42.406 24.6749 42.1539 24.4292 41.8524 24.2588C41.5509 24.0884 41.2103 23.9993 40.864 24H19.136C18.7904 23.9999 18.4506 24.0894 18.1499 24.2598C17.8491 24.4301 17.5977 24.6755 17.42 24.972L12 34L8.58401 37.416ZM44.536 36H15.464L20.264 28H39.736L44.536 36ZM22 43.312V44.8C22 45.1183 21.8736 45.4235 21.6485 45.6485C21.4235 45.8736 21.1183 46 20.8 46H13.2C12.8817 46 12.5765 45.8736 12.3515 45.6485C12.1264 45.4235 12 45.1183 12 44.8V41.464C12.0001 41.2865 12.0396 41.1111 12.1156 40.9507C12.1916 40.7902 12.3023 40.6487 12.4397 40.5362C12.5771 40.4237 12.7377 40.3431 12.91 40.3002C13.0823 40.2572 13.2619 40.2531 13.436 40.288L20.716 41.744C21.0781 41.817 21.4039 42.013 21.6379 42.2988C21.872 42.5846 21.9999 42.9426 22 43.312ZM48 41.952V44.8C48 45.1183 47.8736 45.4235 47.6485 45.6485C47.4235 45.8736 47.1183 46 46.8 46H39.2C38.8817 46 38.5765 45.8736 38.3515 45.6485C38.1264 45.4235 38 45.1183 38 44.8V42.984C38.0001 42.7068 38.0962 42.4382 38.272 42.2238C38.4477 42.0095 38.6922 41.8625 38.964 41.808L46.084 40.384C46.3162 40.3372 46.5559 40.3426 46.7858 40.3997C47.0157 40.4568 47.23 40.5643 47.4133 40.7143C47.5966 40.8643 47.7444 41.0532 47.8458 41.2672C47.9473 41.4812 47.9999 41.7151 48 41.952Z" fill="#1A1A1A"/>
</svg>
